<svg width="32" height="32" viewBox="0 0 32 32" fill="none" xmlns="http://www.w3.org/2000/svg">
<path d="M18.1072 13.3333L20.189 11.2533C20.539 10.9147 21.008 10.7272 21.495 10.7311C21.9819 10.735 22.4478 10.93 22.7924 11.274C23.137 11.6181 23.3326 12.0838 23.3372 12.5707C23.3418 13.0577 23.1549 13.5269 22.8169 13.8774L17.563 19.1313C17.3909 19.3043 17.1864 19.4417 16.961 19.5354C16.7357 19.6291 16.4941 19.6773 16.25 19.6773C16.006 19.6773 15.7643 19.6291 15.539 19.5354C15.3137 19.4417 15.1091 19.3043 14.937 19.1313L9.68315 13.8774C9.51072 13.7048 9.374 13.4998 9.28077 13.2743C9.18755 13.0488 9.13966 12.8071 9.13983 12.5631C9.14 12.3191 9.18824 12.0775 9.28178 11.8521C9.37532 11.6267 9.51234 11.422 9.68501 11.2496C9.85768 11.0771 10.0626 10.9404 10.2881 10.8472C10.5136 10.754 10.7553 10.7061 10.9993 10.7063C11.2433 10.7064 11.4849 10.7547 11.7103 10.8482C11.9357 10.9417 12.1404 11.0788 12.3129 11.2514L14.3929 13.3333V4.85714C14.3929 4.3646 14.5885 3.89223 14.9368 3.54394C15.2851 3.19566 15.7575 3 16.25 3C16.7426 3 17.2149 3.19566 17.5632 3.54394C17.9115 3.89223 18.1072 4.3646 18.1072 4.85714V13.3333Z" fill="white"/>
<path fill-rule="evenodd" clip-rule="evenodd" d="M5.25 20.75C6.49264 20.75 7.5 21.7574 7.5 23V24.25H25.5V23C25.5 21.7574 26.5074 20.75 27.75 20.75C28.9926 20.75 30 21.7574 30 23V25.5C30 27.2949 28.5449 28.75 26.75 28.75H6.25C4.45507 28.75 3 27.2949 3 25.5V23C3 21.7574 4.00736 20.75 5.25 20.75Z" fill="white"/>
</svg>
