<svg width="32" height="32" viewBox="0 0 32 32" fill="none" xmlns="http://www.w3.org/2000/svg">
<path fill-rule="evenodd" clip-rule="evenodd" d="M16 31C24.2843 31 31 24.2843 31 16C31 7.71573 24.2843 1 16 1C7.71573 1 1 7.71573 1 16C1 24.2843 7.71573 31 16 31ZM20.5958 7.35861C20.5471 7.2401 20.4576 7.14082 20.342 7.07699V7.07587C20.2266 7.0122 20.092 6.98755 19.96 7.00593C19.8281 7.02431 19.7065 7.08464 19.6152 7.17711L10.161 16.7391C10.0818 16.819 10.0289 16.9192 10.0089 17.0274C9.98894 17.1356 10.0027 17.247 10.0484 17.3479C10.0942 17.4487 10.1699 17.5346 10.2664 17.595C10.3628 17.6553 10.4757 17.6874 10.5911 17.6874H14.5182L12.3898 24.2716C12.3504 24.3931 12.3554 24.5237 12.404 24.6421C12.4525 24.7605 12.5418 24.8597 12.6572 24.9237C12.7726 24.9876 12.9074 25.0124 13.0395 24.9941C13.1716 24.9758 13.2934 24.9155 13.3848 24.8229L22.839 15.2609C22.9182 15.181 22.9711 15.0807 22.9911 14.9725C23.0111 14.8643 22.9973 14.7529 22.9516 14.6521C22.9058 14.5512 22.8301 14.4653 22.7336 14.405C22.6372 14.3447 22.5243 14.3125 22.4089 14.3126H18.4818L20.6102 7.72946C20.6496 7.60785 20.6446 7.47712 20.5958 7.35861Z" fill="white"/>
</svg>
