<svg width="32" height="32" viewBox="0 0 32 32" fill="none" xmlns="http://www.w3.org/2000/svg">
<g clip-path="url(#clip0_3003_220)">
<path d="M31.68 12.596L29.5416 12.2C29.1656 12.1083 28.8164 11.9296 28.5223 11.6781C28.2281 11.4266 27.9972 11.1095 27.8481 10.7524C27.6991 10.3952 27.6361 10.008 27.6643 9.62204C27.6925 9.23606 27.8111 8.86212 28.0104 8.5304L29.238 6.92C29.4721 6.5913 29.5808 6.18967 29.5445 5.78776C29.5082 5.38585 29.3292 5.01021 29.04 4.7288L27.258 2.96C26.9774 2.67417 26.6043 2.49735 26.2054 2.46108C25.8064 2.42481 25.4076 2.53146 25.08 2.762L23.364 3.9896C23.0314 4.18402 22.659 4.30047 22.2749 4.33019C21.8908 4.35992 21.505 4.30214 21.1464 4.1612C20.8141 3.98902 20.5222 3.74816 20.2901 3.45459C20.058 3.16102 19.8909 2.82145 19.8 2.4584L19.404 0.32C19.321 -0.0504274 19.1157 -0.382112 18.8211 -0.621583C18.5266 -0.861053 18.16 -0.994356 17.7804 -1H15.2328C14.851 -0.997313 14.4813 -0.865359 14.184 -0.625648C13.8868 -0.385938 13.6795 -0.0526089 13.596 0.32L13.2 2.4584C13.1058 2.82669 12.9278 3.16825 12.68 3.45645C12.4321 3.74466 12.121 3.97171 11.7709 4.11991C11.4208 4.26811 11.0413 4.33346 10.6618 4.31086C10.2823 4.28825 9.9132 4.17831 9.5832 3.9896L7.92 2.762C7.59241 2.53146 7.19357 2.42481 6.79464 2.46108C6.39571 2.49735 6.02264 2.67417 5.742 2.96L3.96 4.7288C3.67076 5.01021 3.49179 5.38585 3.45548 5.78776C3.41916 6.18967 3.52789 6.5913 3.762 6.92L4.9896 8.636C5.16802 8.96407 5.26966 9.32835 5.28689 9.7014C5.30412 10.0744 5.23649 10.4465 5.08907 10.7897C4.94166 11.1328 4.71831 11.438 4.43585 11.6823C4.15339 11.9266 3.81919 12.1036 3.4584 12.2L1.32 12.596C0.949573 12.679 0.617888 12.8843 0.378417 13.1789C0.138947 13.4734 0.00564415 13.84 0 14.2196V16.7672C0.00268692 17.149 0.134641 17.5187 0.374352 17.816C0.614062 18.1132 0.947391 18.3205 1.32 18.404L3.4584 18.8C3.8344 18.8917 4.18357 19.0704 4.47774 19.3219C4.77191 19.5734 5.00284 19.8905 5.15187 20.2476C5.3009 20.6048 5.36386 20.992 5.33567 21.378C5.30748 21.7639 5.18894 22.1379 4.9896 22.4696L3.762 24.08C3.52789 24.4087 3.41916 24.8103 3.45548 25.2122C3.49179 25.6142 3.67076 25.9898 3.96 26.2712L5.742 28.04C6.02264 28.3258 6.39571 28.5027 6.79464 28.5389C7.19357 28.5752 7.59241 28.4685 7.92 28.238L9.636 27.0104C9.96407 26.832 10.3283 26.7303 10.7014 26.7131C11.0744 26.6959 11.4465 26.7635 11.7897 26.9109C12.1328 27.0583 12.438 27.2817 12.6823 27.5641C12.9266 27.8466 13.1036 28.1808 13.2 28.5416L13.596 30.68C13.679 31.0504 13.8843 31.3821 14.1789 31.6216C14.4734 31.8611 14.84 31.9944 15.2196 32H17.7672C18.1468 31.9944 18.5134 31.8611 18.8079 31.6216C19.1025 31.3821 19.3078 31.0504 19.3908 30.68L19.8 28.5416C19.8917 28.1656 20.0704 27.8164 20.3219 27.5223C20.5734 27.2281 20.8905 26.9972 21.2476 26.8481C21.6048 26.6991 21.992 26.6361 22.378 26.6643C22.7639 26.6925 23.1379 26.8111 23.4696 27.0104L25.1856 28.238C25.5035 28.4411 25.8803 28.532 26.2559 28.4961C26.6315 28.4602 26.9843 28.2997 27.258 28.04L29.04 26.2712C29.3292 25.9898 29.5082 25.6142 29.5445 25.2122C29.5808 24.8103 29.4721 24.4087 29.238 24.08L28.0104 22.364C27.832 22.0359 27.7303 21.6717 27.7131 21.2986C27.6959 20.9256 27.7635 20.5535 27.9109 20.2103C28.0583 19.8672 28.2817 19.562 28.5641 19.3177C28.8466 19.0734 29.1808 18.8964 29.5416 18.8L31.68 18.404C32.0504 18.321 32.3821 18.1157 32.6216 17.8211C32.8611 17.5266 32.9944 17.16 33 16.7804V14.2328C32.9973 13.851 32.8654 13.4813 32.6256 13.184C32.3859 12.8868 32.0526 12.6795 31.68 12.596ZM22.44 15.5C22.44 16.6748 22.0916 17.8233 21.4389 18.8001C20.7862 19.7769 19.8585 20.5383 18.7731 20.9878C17.6877 21.4374 16.4934 21.5551 15.3412 21.3259C14.1889 21.0967 13.1305 20.5309 12.2998 19.7002C11.4691 18.8695 10.9033 17.8111 10.6741 16.6588C10.4449 15.5066 10.5626 14.3123 11.0122 13.2269C11.4617 12.1415 12.2231 11.2138 13.1999 10.5611C14.1767 9.90837 15.3252 9.56 16.5 9.56C18.0754 9.56 19.5862 10.1858 20.7002 11.2998C21.8142 12.4138 22.44 13.9246 22.44 15.5Z" fill="white"/>
</g>
<defs>
<clipPath id="clip0_3003_220">
<rect width="32" height="32" fill="white"/>
</clipPath>
</defs>
</svg>
