<svg xmlns="http://www.w3.org/2000/svg" width="1089" height="270" viewBox="0 0 1089 270"><defs>
  <linearGradient id="bg" x1="0" y1="0" x2="0" y2="1">
    <stop offset="0" stop-color="#202024"/>
    <stop offset="1" stop-color="#111113"/>
  </linearGradient>
  <radialGradient id="glow" cx="0.5" cy="0.42" r="0.75">
    <stop offset="0" stop-color="#ffffff" stop-opacity="0.07"/>
    <stop offset="1" stop-color="#ffffff" stop-opacity="0"/>
  </radialGradient></defs><g transform="translate(20,20) scale(0.33527696793002915)" fill="#fff" opacity="1">
  <rect x="0" y="139" width="105" height="105" rx="26"/>
  <rect x="0" y="290" width="105" height="105" rx="26"/>
  <rect x="0" y="441" width="105" height="105" rx="26"/>
  <rect x="166" y="242" width="201" height="201" rx="85"/>
  <rect x="307" y="0" width="295" height="176" rx="88"/>
  <rect x="307" y="510" width="295" height="176" rx="88"/>
  <rect x="430" y="0" width="172" height="686" rx="86"/></g><path d="M16.80-71.58L35.69-71.58Q43.07-71.58 48.34-70.21Q53.61-68.85 57.91-65.09Q69.09-55.52 69.09-35.99Q69.09-29.54 67.97-24.22Q66.85-18.90 64.50-14.62Q62.16-10.35 58.50-6.98Q55.62-4.39 52.20-2.83Q48.78-1.27 44.85-0.63Q40.92 0 35.99 0L17.09 0Q13.13 0 11.13-1.20Q9.13-2.39 8.52-4.57Q7.91-6.74 7.91-10.21L7.91-62.70Q7.91-67.38 10.01-69.48Q12.11-71.58 16.80-71.58M31.98-60.11L22.41-60.11L22.41-11.52L33.40-11.52Q37.01-11.52 39.06-11.72Q41.11-11.91 43.31-12.70Q45.51-13.48 47.12-14.89Q54.39-21.04 54.39-36.08Q54.39-46.68 51.20-51.95Q48-57.23 43.31-58.67Q38.62-60.11 31.98-60.11 M135-60.40L102.34-60.40L102.34-42.82L132.42-42.82Q135.74-42.82 137.37-41.33Q139.01-39.84 139.01-37.40Q139.01-34.96 137.40-33.42Q135.79-31.88 132.42-31.88L102.34-31.88L102.34-11.52L136.13-11.52Q139.54-11.52 141.28-9.94Q143.01-8.35 143.01-5.71Q143.01-3.17 141.28-1.59Q139.54 0 136.13 0L96.72 0Q91.99 0 89.91-2.10Q87.84-4.20 87.84-8.89L87.84-62.70Q87.84-65.82 88.76-67.80Q89.69-69.78 91.67-70.68Q93.65-71.58 96.72-71.58L135-71.58Q138.47-71.58 140.16-70.04Q141.84-68.51 141.84-66.02Q141.84-63.48 140.16-61.94Q138.47-60.40 135-60.40 M221.52-22.61Q221.52-19.19 219.84-15.21Q218.15-11.23 214.54-7.40Q210.93-3.56 205.31-1.17Q199.70 1.22 192.22 1.22Q186.56 1.22 181.92 0.15Q177.28-0.93 173.50-3.20Q169.71-5.47 166.54-9.18Q163.71-12.55 161.71-16.72Q159.71-20.90 158.70-25.63Q157.70-30.37 157.70-35.69Q157.70-44.34 160.22-51.17Q162.73-58.01 167.42-62.87Q172.11-67.72 178.41-70.26Q184.71-72.80 191.83-72.80Q200.53-72.80 207.31-69.34Q214.10-65.87 217.71-60.77Q221.33-55.66 221.33-51.12Q221.33-48.63 219.57-46.73Q217.81-44.82 215.32-44.82Q212.54-44.82 211.15-46.14Q209.75-47.46 208.04-50.68Q205.21-56.01 201.38-58.64Q197.55-61.28 191.93-61.28Q183-61.28 177.70-54.49Q172.40-47.71 172.40-35.21Q172.40-26.86 174.74-21.31Q177.09-15.77 181.38-13.04Q185.68-10.30 191.44-10.30Q197.69-10.30 202.01-13.40Q206.34-16.50 208.53-22.51Q209.46-25.34 210.83-27.12Q212.20-28.91 215.22-28.91Q217.81-28.91 219.67-27.10Q221.52-25.29 221.52-22.61 M255.16-64.01L255.16-38.92L283.63-68.60Q285.68-70.75 287.12-71.78Q288.56-72.80 290.95-72.80Q294.07-72.80 296-70.97Q297.93-69.14 297.93-66.50Q297.93-63.33 294.66-60.21L277.03-43.51L297.35-14.40Q299.49-11.38 300.57-9.11Q301.64-6.84 301.64-4.69Q301.64-2.29 299.76-0.54Q297.88 1.22 294.66 1.22Q291.63 1.22 289.73-0.07Q287.82-1.37 286.51-3.52Q285.19-5.66 284.16-7.42L267.02-33.79L255.16-22.41L255.16-7.62Q255.16-3.12 253.11-0.95Q251.06 1.22 247.83 1.22Q245.98 1.22 244.27 0.24Q242.56-0.73 241.63-2.39Q240.95-3.76 240.80-5.57Q240.66-7.37 240.66-10.79L240.66-64.01Q240.66-68.41 242.58-70.61Q244.51-72.80 247.83-72.80Q251.11-72.80 253.13-70.63Q255.16-68.46 255.16-64.01 M366.38-8.11L362.96-17.09L333.86-17.09L330.45-7.91Q328.44-2.54 327.03-0.66Q325.61 1.22 322.39 1.22Q319.65 1.22 317.55-0.78Q315.46-2.78 315.46-5.32Q315.46-6.79 315.94-8.35Q316.43-9.91 317.55-12.70L335.87-59.18Q336.65-61.18 337.75-63.99Q338.84-66.80 340.09-68.65Q341.33-70.51 343.36-71.66Q345.39-72.80 348.37-72.80Q351.39-72.80 353.42-71.66Q355.45-70.51 356.69-68.70Q357.94-66.89 358.79-64.82Q359.64-62.74 360.96-59.28L379.66-13.09Q381.86-7.81 381.86-5.42Q381.86-2.93 379.79-0.85Q377.71 1.22 374.78 1.22Q373.07 1.22 371.85 0.61Q370.63 0 369.80-1.05Q368.97-2.10 368.02-4.27Q367.07-6.45 366.38-8.11M348.27-57.52L337.67-27.98L359.06-27.98 M417.40-64.11L445.28-21.92L445.28-64.50Q445.28-68.65 447.07-70.73Q448.85-72.80 451.88-72.80Q455-72.80 456.81-70.73Q458.61-68.65 458.61-64.50L458.61-8.20Q458.61 1.22 450.80 1.22Q448.85 1.22 447.29 0.66Q445.72 0.10 444.36-1.12Q442.99-2.34 441.82-3.98Q440.64-5.62 439.47-7.32L412.28-49.02L412.28-7.08Q412.28-2.98 410.37-0.88Q408.47 1.22 405.49 1.22Q402.41 1.22 400.56-0.90Q398.70-3.03 398.70-7.08L398.70-62.30Q398.70-65.82 399.48-67.82Q400.41-70.02 402.56-71.41Q404.71-72.80 407.20-72.80Q409.15-72.80 410.54-72.17Q411.93-71.53 412.98-70.46Q414.03-69.38 415.13-67.68Q416.23-65.97 417.40-64.11 M526.28-8.11L522.87-17.09L493.76-17.09L490.35-7.91Q488.34-2.54 486.93-0.66Q485.51 1.22 482.29 1.22Q479.55 1.22 477.46-0.78Q475.36-2.78 475.36-5.32Q475.36-6.79 475.84-8.35Q476.33-9.91 477.46-12.70L495.77-59.18Q496.55-61.18 497.65-63.99Q498.74-66.80 499.99-68.65Q501.23-70.51 503.26-71.66Q505.29-72.80 508.27-72.80Q511.29-72.80 513.32-71.66Q515.35-70.51 516.59-68.70Q517.84-66.89 518.69-64.82Q519.54-62.74 520.86-59.28L539.56-13.09Q541.76-7.81 541.76-5.42Q541.76-2.93 539.69-0.85Q537.61 1.22 534.68 1.22Q532.97 1.22 531.75 0.61Q530.53 0 529.70-1.05Q528.87-2.10 527.92-4.27Q526.97-6.45 526.28-8.11M508.17-57.52L497.57-27.98L518.96-27.98 M604.89-59.62L589.07-59.62L589.07-7.62Q589.07-3.12 587.07-0.95Q585.07 1.22 581.89 1.22Q578.67 1.22 576.64-0.98Q574.62-3.17 574.62-7.62L574.62-59.62L558.80-59.62Q555.09-59.62 553.28-61.25Q551.47-62.89 551.47-65.58Q551.47-68.36 553.35-69.97Q555.23-71.58 558.80-71.58L604.89-71.58Q608.65-71.58 610.48-69.92Q612.31-68.26 612.31-65.58Q612.31-62.89 610.46-61.25Q608.60-59.62 604.89-59.62 M658.40-72.80Q669.53-72.80 677.52-68.29Q685.50-63.77 689.60-55.44Q693.70-47.12 693.70-35.89Q693.70-27.59 691.46-20.80Q689.21-14.01 684.72-9.03Q680.23-4.05 673.68-1.42Q667.14 1.22 658.69 1.22Q650.29 1.22 643.65-1.49Q637.01-4.20 632.57-9.13Q628.13-14.06 625.86-21Q623.59-27.93 623.59-35.99Q623.59-44.24 625.95-51.12Q628.32-58.01 632.81-62.84Q637.31-67.68 643.75-70.24Q650.20-72.80 658.40-72.80M679.01-35.99Q679.01-43.85 676.47-49.61Q673.93-55.37 669.22-58.33Q664.50-61.28 658.40-61.28Q654.05-61.28 650.37-59.64Q646.68-58.01 644.02-54.88Q641.36-51.76 639.82-46.90Q638.28-42.04 638.28-35.99Q638.28-29.88 639.82-24.95Q641.36-20.02 644.17-16.77Q646.97-13.53 650.61-11.91Q654.25-10.30 658.60-10.30Q664.16-10.30 668.83-13.09Q673.49-15.87 676.25-21.68Q679.01-27.49 679.01-35.99 M731.59-30.62L726.51-30.62L726.51-7.62Q726.51-3.08 724.51-0.93Q722.51 1.22 719.28 1.22Q715.82 1.22 713.91-1.03Q712.01-3.27 712.01-7.62L712.01-62.70Q712.01-67.38 714.11-69.48Q716.21-71.58 720.89-71.58L744.48-71.58Q749.36-71.58 752.83-71.17Q756.29-70.75 759.08-69.48Q762.45-68.07 765.04-65.43Q767.62-62.79 768.97-59.30Q770.31-55.81 770.31-51.90Q770.31-43.90 765.79-39.11Q761.28-34.33 752.10-32.32Q755.95-30.27 759.47-26.27Q762.98-22.27 765.74-17.75Q768.50-13.23 770.04-9.59Q771.58-5.96 771.58-4.59Q771.58-3.17 770.67-1.78Q769.77-0.39 768.21 0.42Q766.65 1.22 764.60 1.22Q762.15 1.22 760.49 0.07Q758.83-1.07 757.64-2.83Q756.44-4.59 754.39-8.01L748.58-17.68Q745.46-23 742.99-25.78Q740.52-28.56 737.98-29.59Q735.45-30.62 731.59-30.62M739.89-60.69L726.51-60.69L726.51-41.02L739.50-41.02Q744.72-41.02 748.29-41.92Q751.85-42.82 753.73-45Q755.61-47.17 755.61-50.98Q755.61-53.96 754.10-56.23Q752.58-58.50 749.90-59.62Q747.36-60.69 739.89-60.69" fill="#fff" transform="translate(291.83673469387753,171)"/></svg>